<?xml version="1.0" standalone="no"?>
<!DOCTYPE svg PUBLIC "-//W3C//DTD SVG 20010904//EN"
 "http://www.w3.org/TR/2001/REC-SVG-20010904/DTD/svg10.dtd">
<svg version="1.0" xmlns="http://www.w3.org/2000/svg"
 width="1536.000000pt" height="712.000000pt" viewBox="0 0 1536.000000 1412.000000"
 preserveAspectRatio="xMidYMid meet">

<g transform="translate(0.000000,1412.000000) scale(0.100000,-0.100000)"
fill="#3388cc" stroke="none">
<path d="M0 7060 l0 -7060 7680 0 7680 0 0 7060 0 7060 -7680 0 -7680 0 0
-7060z m13355 4078 c39 -8 87 -22 109 -32 21 -9 43 -13 49 -9 5 3 7 2 4 -4 -4
-6 4 -15 16 -20 111 -51 186 -199 207 -412 7 -68 10 -1303 10 -3635 0 -3838 2
-3687 -54 -3825 -56 -139 -136 -207 -299 -255 l-72 -21 -5600 -3 c-6068 -2
-5702 -5 -5823 48 -24 11 -49 17 -56 13 -6 -3 -8 -3 -4 2 4 4 -10 20 -30 35
-75 54 -119 124 -154 247 l-23 78 0 3690 c0 3581 1 3692 19 3760 61 227 178
318 456 354 36 5 2565 8 5620 7 4945 -2 5563 -4 5625 -18z"/>
<path d="M2100 11060 c-36 -4 -93 -17 -128 -28 -151 -49 -218 -143 -247 -351
-14 -94 -15 -521 -12 -3696 3 -3180 5 -3597 19 -3655 34 -148 103 -236 215
-279 139 -53 -176 -51 5742 -51 4911 0 5494 2 5588 16 58 8 124 23 148 32 118
46 181 128 215 280 20 86 20 119 18 3742 l-3 3655 -21 60 c-53 151 -108 209
-249 256 l-70 24 -5575 1 c-3066 1 -5604 -2 -5640 -6z m1995 -1169 c55 -9 195
-38 225 -46 3 -1 18 -7 33 -13 16 -7 34 -9 40 -5 7 3 9 3 5 -1 -4 -5 23 -23
60 -42 37 -18 94 -59 127 -90 33 -32 64 -56 70 -55 5 2 7 0 3 -4 -4 -4 9 -35
27 -68 62 -114 65 -149 65 -794 0 -335 -4 -605 -10 -643 -19 -125 -90 -237
-210 -334 -42 -34 -182 -93 -275 -116 -138 -34 -227 -40 -672 -47 l-413 -6 0
-633 0 -634 -397 2 -398 3 -3 1760 c-1 968 0 1766 3 1773 7 18 1613 12 1720
-7z m2045 -1536 l0 -1555 535 0 535 0 0 -220 0 -220 -930 0 -930 0 0 1775 0
1775 395 0 395 0 0 -1555z m3225 1545 c-2 -4 40 -12 93 -19 53 -7 116 -19 139
-27 22 -8 49 -11 60 -7 10 3 15 2 10 -2 -4 -5 23 -21 59 -37 82 -35 182 -105
222 -155 16 -21 43 -65 58 -98 16 -33 31 -62 34 -65 3 -3 6 -14 7 -25 1 -11 7
-56 13 -100 6 -52 10 -593 10 -1542 l0 -1463 -400 0 -400 0 -2 643 -3 642
-432 3 -433 2 -2 -642 -3 -643 -393 -3 -392 -2 2 1547 c3 1534 3 1548 23 1598
67 163 183 264 378 331 66 23 260 58 367 67 78 7 989 4 985 -3z m3085 -14
c177 -29 303 -73 397 -137 51 -34 143 -126 143 -141 0 -5 5 -6 12 -2 6 4 8 3
5 -4 -4 -5 4 -32 17 -59 40 -79 45 -125 46 -395 l0 -258 -395 0 -395 0 0 205
c0 230 -5 255 -63 299 -73 55 -127 66 -342 66 -169 0 -203 -3 -252 -20 -61
-21 -97 -49 -119 -92 -20 -38 -21 -2381 -1 -2425 19 -44 38 -63 92 -91 l50
-27 235 0 235 0 60 30 c89 45 105 81 105 242 l0 123 396 -2 396 -3 -2 -177
c-1 -158 -3 -184 -24 -246 -68 -200 -211 -310 -493 -379 l-108 -26 -525 -4
c-548 -3 -565 -3 -755 41 -38 9 -113 37 -165 63 -128 62 -212 145 -261 259
l-34 79 -3 1299 c-3 1429 -5 1361 58 1472 16 29 26 55 22 59 -4 5 -2 6 3 4 11
-5 105 87 99 96 -2 3 -1 3 3 0 3 -3 11 -1 17 4 38 32 152 85 225 106 86 24
243 51 336 58 28 3 239 3 470 2 330 -2 440 -6 515 -19z m-9183 -4781 l1 -320
64 -1 63 -1 3 -52 3 -51 -125 0 -126 0 -2 371 c-2 203 0 373 4 377 4 4 31 5
60 2 l53 -5 2 -320z m293 -51 l0 -374 -60 0 -60 0 0 374 0 375 53 3 c28 2 55
2 60 0 4 -2 7 -172 7 -378z m536 338 c4 -21 19 -86 34 -147 24 -101 27 -107
34 -75 4 19 16 80 28 135 11 55 22 106 24 113 2 8 23 12 57 12 57 0 72 -6 58
-24 -5 -6 -34 -111 -65 -234 -54 -216 -56 -228 -56 -358 l0 -134 -55 0 -55 0
-1 118 c0 64 -2 131 -3 147 -3 31 -86 356 -111 431 -7 23 -9 46 -5 50 5 5 32
7 59 6 49 -4 51 -5 57 -40z m996 -107 l43 -150 3 147 3 146 54 4 55 3 0 -377
0 -378 -55 0 -55 0 0 76 c0 60 -8 102 -36 193 -20 64 -40 125 -44 136 -5 12
-9 -69 -9 -193 l-1 -213 -57 3 -58 3 -3 355 c-1 195 0 364 2 375 4 17 13 20
60 20 l55 0 43 -150z m4504 125 c2 0 10 -13 19 -30 9 -18 15 -56 15 -100 l0
-70 -55 0 -55 0 0 55 c0 30 -3 55 -7 56 -5 0 -19 2 -33 4 -49 5 -50 0 -50
-269 0 -265 2 -276 46 -276 27 0 41 17 46 55 3 29 5 30 56 33 l52 3 0 -66 c0
-60 -3 -69 -29 -96 -28 -28 -33 -29 -123 -29 -99 0 -123 10 -147 57 -11 22
-16 588 -5 628 3 11 17 29 32 40 35 25 153 36 201 18 18 -7 35 -13 37 -13z
m1178 -28 c-4 -26 -11 -58 -16 -72 -6 -14 -28 -95 -50 -180 -36 -142 -39 -167
-41 -300 l-2 -145 -57 -3 -58 -3 0 131 c0 137 -17 228 -95 505 -13 50 -25 96
-25 103 0 9 15 12 57 10 l56 -3 32 -145 c20 -90 34 -137 38 -125 3 11 15 67
27 125 11 58 22 115 25 127 4 18 13 22 53 25 26 2 51 1 55 0 4 -2 5 -25 1 -50z
m1067 -98 c22 -76 42 -141 45 -143 2 -2 4 61 4 141 0 79 2 147 4 149 2 2 27 2
55 1 l51 -4 0 -374 0 -375 -57 3 -58 3 3 70 c2 60 -3 88 -42 205 l-44 135 -1
-207 -1 -208 -60 0 -60 0 0 374 0 375 53 3 c28 2 55 0 60 -3 4 -3 26 -68 48
-145z m507 93 l-3 -51 -45 -1 -45 0 -3 -322 -2 -323 -55 0 -55 0 0 324 0 325
-45 -2 c-48 -2 -55 4 -55 53 0 56 -2 55 161 52 l150 -3 -3 -52z m-9733 41 c47
-21 54 -51 56 -225 2 -182 -5 -208 -61 -235 -20 -10 -58 -18 -87 -18 l-53 0 0
-130 0 -130 -55 0 -55 0 0 375 0 375 115 0 c67 0 125 -5 140 -12z m405 -1 c14
-7 33 -28 42 -47 16 -31 18 -69 18 -318 0 -232 -3 -288 -15 -312 -27 -52 -49
-60 -163 -60 -100 0 -104 1 -132 28 -39 39 -42 72 -38 382 4 343 2 338 173
339 53 1 100 -4 115 -12z m892 -16 c31 -28 33 -33 36 -111 l4 -81 -58 3 -59 3
-3 52 c-3 47 -6 54 -28 59 -52 13 -54 4 -54 -277 l0 -259 25 -6 c45 -11 63 8
56 63 -2 16 36 25 80 21 34 -3 34 -4 39 -60 3 -31 2 -54 -1 -52 -4 2 -12 -9
-19 -25 -16 -40 -48 -51 -145 -51 -79 0 -87 2 -117 29 l-33 29 -3 281 c-3 231
-1 290 12 334 20 67 35 75 148 76 83 1 89 -1 120 -28z m913 4 c39 -48 40 -64
37 -399 l-3 -326 -54 0 -55 0 0 135 0 134 -47 -3 -48 -3 -3 -132 -3 -132 -57
3 -57 3 -3 300 c-5 442 -2 449 175 443 88 -3 104 -6 118 -23z m769 13 c14 -6
35 -30 46 -53 19 -38 20 -61 20 -324 0 -307 -4 -332 -56 -351 -14 -6 -81 -10
-150 -10 l-124 0 0 375 0 375 120 0 c69 0 130 -5 144 -12z m414 -315 l2 -323
65 0 65 0 0 -50 0 -50 -125 0 -125 0 0 375 0 376 58 -3 57 -3 3 -322z m440
275 c3 -41 0 -48 -15 -49 -10 0 -44 0 -76 -1 l-58 0 3 -107 3 -106 55 -2 c30
-1 60 -2 65 -2 7 -1 9 -19 5 -48 l-5 -48 -62 -3 -63 -3 0 -114 0 -115 76 0 75
0 -3 -47 -3 -48 -128 0 -128 0 0 370 c1 204 1 371 1 373 0 1 57 1 128 0 l127
-3 3 -47z m316 41 c38 -17 56 -66 56 -149 0 -62 -2 -71 -16 -66 -9 3 -33 6
-55 6 l-39 0 0 43 c0 51 -9 66 -43 72 -54 10 -57 -2 -57 -275 0 -236 1 -250
19 -260 11 -5 33 -10 50 -10 l31 0 0 80 c0 46 -4 81 -10 81 -5 1 -16 2 -22 3
-8 1 -14 20 -16 53 l-3 51 76 4 c42 2 79 0 83 -4 4 -4 6 -88 4 -187 l-3 -181
-130 0 -131 0 -29 31 -29 31 0 300 c0 391 -2 386 157 387 45 1 93 -4 107 -10z
m398 -9 c14 -10 28 -17 31 -14 3 3 6 -157 7 -355 l1 -361 -56 0 -55 0 0 130
c0 79 -4 130 -10 131 -5 0 -23 1 -40 1 -16 0 -34 -1 -40 -1 -6 -1 -10 -52 -10
-131 l0 -130 -55 0 -55 0 0 338 c0 302 2 340 17 362 31 45 44 49 144 50 81 0
100 -3 121 -20z m238 -305 l0 -325 65 0 65 0 0 -50 0 -50 -125 0 -125 0 0 375
0 375 60 0 60 0 0 -325z m597 319 c13 -4 32 -21 43 -39 19 -31 20 -49 20 -369
l0 -336 -55 0 -54 0 -3 133 -3 132 -47 1 -48 1 0 -133 0 -134 -61 0 -60 0 3
338 c4 422 -1 410 163 411 44 1 90 -2 102 -5z m410 -14 c51 -30 55 -60 51
-387 -4 -366 12 -338 -186 -338 l-137 0 -3 373 -2 372 122 0 c104 0 128 -3
155 -20z m218 -102 c17 -116 23 -158 43 -305 9 -71 25 -99 21 -38 -2 22 0 45
3 50 3 6 12 53 19 105 7 52 20 142 29 200 l16 105 43 3 c71 5 71 6 51 -110
-10 -57 -28 -166 -40 -243 -12 -77 -28 -176 -35 -220 -8 -44 -16 -102 -20
-128 l-6 -48 -67 3 -67 3 -16 90 c-9 50 -24 142 -34 205 -10 63 -26 165 -35
225 -10 61 -22 136 -25 168 l-7 57 54 0 55 0 18 -122z m597 94 c23 -23 23 -23
23 -347 0 -392 9 -368 -136 -374 -121 -4 -153 3 -180 40 -20 29 -21 40 -21
328 -1 393 -5 383 179 379 102 -3 115 -5 135 -26z m759 -1 l29 -29 0 -347 0
-346 -52 3 -53 3 -5 130 -5 130 -35 -1 c-19 -1 -41 -2 -48 -3 -10 -1 -13 -30
-11 -128 l1 -128 -56 -3 -57 -3 3 343 c3 371 4 377 58 397 14 5 65 10 113 10
85 1 90 0 118 -28z m367 15 c37 -19 52 -60 52 -142 l0 -62 -51 -4 c-28 -1 -54
1 -57 7 -3 5 -5 28 -3 51 2 43 -4 52 -41 59 -46 9 -48 -1 -48 -269 0 -265 2
-276 46 -276 27 0 41 17 46 55 3 29 5 30 53 30 l50 0 3 -55 c2 -41 -3 -63 -17
-87 -24 -38 -58 -47 -167 -41 -70 3 -78 6 -100 33 l-24 30 2 318 3 319 26 22
c23 20 39 24 112 25 61 1 95 -3 115 -13z m896 0 c43 -18 58 -56 54 -141 l-3
-67 -53 -2 -52 -1 0 51 c0 54 -11 71 -45 71 -44 0 -45 -7 -45 -271 0 -270 1
-276 51 -276 29 0 39 15 39 61 0 29 1 29 55 29 l55 0 0 -60 c0 -110 -25 -130
-167 -130 -82 0 -86 1 -114 31 l-28 31 -3 305 c-3 302 -3 306 19 338 12 18 28
35 35 38 28 11 170 6 202 -7z m386 -28 c0 -24 -4 -47 -8 -53 -4 -5 -36 -10
-72 -10 l-65 0 0 -105 0 -105 63 0 62 0 0 -52 0 -53 -65 0 -65 0 0 -115 0
-115 76 0 75 0 -3 -47 -3 -48 -130 0 -130 0 -3 373 -2 372 135 0 135 0 0 -42z
m1045 18 c30 -24 30 -24 35 -153 6 -154 0 -204 -29 -243 -12 -18 -20 -39 -17
-52 2 -13 16 -76 30 -141 14 -65 26 -123 26 -128 0 -5 -24 -9 -53 -9 l-52 0
-28 128 c-37 167 -35 162 -57 162 -18 0 -20 -10 -22 -142 l-3 -143 -57 -3 -58
-3 0 376 0 375 128 0 c119 0 129 -2 157 -24z m363 -27 l-3 -51 -70 -2 -70 -1
-3 -85 c-4 -129 -4 -129 70 -127 l63 2 0 -50 0 -50 -65 -5 -65 -5 -3 -113 -3
-113 73 2 73 2 3 -51 3 -52 -130 0 -131 0 0 375 0 375 131 0 130 0 -3 -51z"/>
<path d="M3170 8770 l0 -690 288 0 c314 0 365 7 429 56 74 56 73 47 73 623 0
365 -3 525 -12 553 -17 56 -69 102 -144 127 -59 19 -87 21 -349 21 l-285 0 0
-690z"/>
<path d="M8542 9440 c-69 -25 -106 -52 -126 -94 -14 -30 -16 -102 -16 -640 l0
-606 410 -1 c226 -1 420 -2 433 -2 l22 -1 3 604 c2 670 5 641 -64 698 -63 52
-126 62 -381 61 -196 0 -235 -3 -281 -19z"/>
<path d="M2476 5323 c-3 -3 -6 -66 -6 -140 l0 -133 33 0 c18 0 38 5 45 12 17
17 17 242 0 255 -15 11 -62 15 -72 6z"/>
<path d="M2863 5323 c-10 -4 -13 -66 -13 -268 0 -287 -2 -275 58 -275 52 0 52
-2 53 274 1 141 -1 260 -5 263 -7 7 -77 11 -93 6z"/>
<path d="M4661 5317 c-7 -7 -11 -57 -11 -140 l0 -128 48 3 47 3 3 120 c1 66
-2 126 -6 133 -12 17 -66 24 -81 9z"/>
<path d="M5457 5323 c-4 -3 -7 -127 -7 -275 l0 -269 43 3 42 3 3 260 c2 236 1
261 -15 273 -18 13 -55 16 -66 5z"/>
<path d="M7005 5314 c-13 -13 -15 -37 -13 -138 l3 -121 48 -3 47 -3 0 134 c0
131 -1 135 -22 141 -35 9 -45 7 -63 -10z"/>
<path d="M7863 5323 c-10 -3 -13 -41 -13 -139 l0 -135 48 3 47 3 3 121 c2 101
0 125 -13 138 -16 16 -47 20 -72 9z"/>
<path d="M8257 5323 c-4 -3 -7 -127 -7 -275 l0 -268 39 0 c21 0 44 6 50 14 8
9 10 90 8 265 -2 211 -4 253 -17 261 -17 11 -64 13 -73 3z"/>
<path d="M9033 5323 c-18 -7 -19 -513 -1 -531 7 -7 28 -12 48 -12 20 0 41 5
48 12 9 9 12 81 12 265 0 239 -1 253 -19 263 -20 10 -66 12 -88 3z"/>
<path d="M9815 5314 c-13 -13 -15 -37 -13 -138 l3 -121 48 -3 47 -3 0 134 c0
114 -2 136 -16 141 -27 10 -52 7 -69 -10z"/>
<path d="M12510 5205 c0 -135 -1 -132 55 -126 30 3 35 19 35 123 0 108 -9 128
-61 128 l-29 0 0 -125z"/>
</g>
</svg>
